# xmcd
#
# Track frame offsets:
#	150
#	13585
#	27765
#	45178
#	61200
#	82515
#	105247
#	122811
#	135737
#	155144
#	175886
#	190166
#	207200
#	222477
#	238587
#	251397
#	266613
#	284121
#	298447
#	324406
#
# Disc length: 4565 seconds
#
# Revision: 0
# Processed by: cddbd v1.5.2PL0 Copyright (c) Steve Scherf et al.
# Submitted via: dBpowerAMP V4.0
#
DISCID=1e11d314
DTITLE=Various Artist - TexMix 2009 MusicFest
DYEAR=2009
DGENRE=Texas Country
TTITLE0=Casey Donahew Band - Hunter S. (Rocket Ship)
TTITLE1=Rich O'Toole - 11th Street
TTITLE2=Bart Crow Band - Hollywood
TTITLE3=Paula Nelson Band - Baby You're Mean
TTITLE4=Band of Heathens - Cornbread
TTITLE5=Josh Grider Trio - Dollar Tree
TTITLE6=Brett Crenshaw - Tryin' to Keep Up
TTITLE7=Uncle Bill Roach Band - I'm Going to Texas
TTITLE8=Ryan McBride - Hearts
TTITLE9=Zach Edwards Band - Cowboy Up
TTITLE10=Sam Sliva - Jim Marshall
TTITLE11=Jason Boland and the Stragglers - The Party's Not Over
TTITLE12=Bonnie Bishop - I Think I Will
TTITLE13=Joey Green - Torino
TTITLE14=Dustin Welch - Don't Tell'em Nothin'
TTITLE15=Walt Wilkins and the Mystiqueros - Get Me Gone
TTITLE16=Reckless Kelly - Think It Over One Time
TTITLE17=Stewart Mann and the Statesboro Revue - Lady
TTITLE18=Jamey Johnson - High Cost of Living
TTITLE19=Roger Creager w/ Trent Willmon - Driving Home
EXTD=
EXTT0=
EXTT1=
EXTT2=
EXTT3=
EXTT4=
EXTT5=
EXTT6=
EXTT7=
EXTT8=
EXTT9=
EXTT10=
EXTT11=
EXTT12=
EXTT13=
EXTT14=
EXTT15=
EXTT16=
EXTT17=
EXTT18=
EXTT19=
PLAYORDER=
